<svg width="57" height="55" viewBox="0 0 57 55" fill="none" xmlns="http://www.w3.org/2000/svg">
<path fill-rule="evenodd" clip-rule="evenodd" d="M38.0001 7.43115H19.76C13.4639 7.43115 8.35999 12.5612 8.35999 18.8895V37.2229C8.35999 43.5511 13.4639 48.6812 19.76 48.6812H38.0001C44.2961 48.6812 49.4001 43.5511 49.4001 37.2229V18.8895C49.4001 12.5612 44.2961 7.43115 38.0001 7.43115ZM45.4101 37.2229C45.3975 41.3309 42.0872 44.6582 38.0001 44.6708H19.76C15.6727 44.6582 12.3625 41.3309 12.35 37.2229V18.8895C12.3625 14.7813 15.6727 11.4542 19.76 11.4416H38.0001C42.0872 11.4542 45.3975 14.7813 45.4101 18.8895V37.2229ZM39.7101 19.4624C40.9693 19.4624 41.9901 18.4364 41.9901 17.1707C41.9901 15.9051 40.9693 14.8791 39.7101 14.8791C38.4508 14.8791 37.4301 15.9051 37.4301 17.1707C37.4301 18.4364 38.4508 19.4624 39.7101 19.4624ZM28.8801 17.7437C23.2136 17.7437 18.62 22.3607 18.62 28.0562C18.62 33.7517 23.2136 38.3687 28.8801 38.3687C34.5466 38.3687 39.1401 33.7517 39.1401 28.0562C39.1462 25.3193 38.0671 22.6927 36.1416 20.7574C34.2162 18.8221 31.6031 17.7376 28.8801 17.7437ZM22.61 28.0562C22.61 31.5368 25.4172 34.3583 28.8801 34.3583C32.3429 34.3583 35.1501 31.5368 35.1501 28.0562C35.1501 24.5756 32.3429 21.7541 28.8801 21.7541C25.4172 21.7541 22.61 24.5756 22.61 28.0562Z" fill="#DEDEDE"/>
</svg>
